<svg xmlns="http://www.w3.org/2000/svg" viewBox="0 0 12.6 12.6"><defs><style>.cls-1{fill:#009444;}</style></defs><title>settings</title><g id="Layer_2" data-name="Layer 2"><g id="Dashboard"><path class="cls-1" d="M10.89,6.3s0,0,0-.05L12.6,5.5c0-.16,0-.32-.08-.48l-1.87-.15A4.56,4.56,0,0,0,10.24,4l1.12-1.51L11,2.08l-1.69.8a4.59,4.59,0,0,0-.81-.58L8.76.44,8.3.27,7.24,1.81a4.6,4.6,0,0,0-.94-.1H6.25L5.5,0,5,.08,4.87,1.94A4.55,4.55,0,0,0,4,2.36L2.46,1.24l-.38.31.8,1.69a4.59,4.59,0,0,0-.58.81L.44,3.84c-.06.15-.12.3-.17.46L1.81,5.36a4.6,4.6,0,0,0-.1.94s0,0,0,.05L0,7.1c0,.16,0,.32.08.48l1.87.15a4.56,4.56,0,0,0,.41.91L1.24,10.14l.31.38,1.69-.8a4.59,4.59,0,0,0,.81.58l-.21,1.86.46.17,1.06-1.54a4.6,4.6,0,0,0,.94.1h.05L7.1,12.6l.48-.08.15-1.87a4.55,4.55,0,0,0,.91-.41l1.51,1.12.38-.31-.8-1.69a4.59,4.59,0,0,0,.58-.81l1.86.21c.06-.15.12-.3.17-.46L10.79,7.24A4.6,4.6,0,0,0,10.89,6.3ZM6.3,9.77A3.47,3.47,0,1,1,9.77,6.3,3.47,3.47,0,0,1,6.3,9.77Z"/></g></g></svg>